<?xml version="1.0" encoding="UTF-8" standalone="no"?>
<!DOCTYPE svg PUBLIC "-//W3C//DTD SVG 1.1//EN" "http://www.w3.org/Graphics/SVG/1.1/DTD/svg11.dtd">
<svg xmlns="http://www.w3.org/2000/svg" version="1.1" viewBox="0.00 0.00 1448.00 1448.00">
<path fill="#ffffff" d="
  M 710.87 0.00
  L 737.50 0.00
  Q 745.81 0.45 754.12 0.80
  Q 915.17 7.61 1056.87 80.89
  C 1147.17 127.59 1226.50 193.22 1289.40 271.87
  C 1382.61 388.41 1437.34 529.81 1446.63 679.12
  Q 1447.24 689.03 1448.00 710.62
  L 1448.00 737.50
  Q 1447.43 752.26 1446.54 766.99
  Q 1436.47 933.94 1355.58 1078.19
  C 1308.61 1161.94 1245.22 1235.37 1170.26 1294.07
  C 1083.04 1362.37 981.61 1409.99 872.61 1432.75
  Q 816.52 1444.47 757.49 1447.09
  Q 747.43 1447.54 737.38 1448.00
  L 710.50 1448.00
  Q 686.81 1447.12 680.75 1446.75
  Q 524.66 1437.34 385.40 1364.13
  Q 376.56 1359.49 367.71 1354.43
  Q 242.60 1283.03 154.65 1171.17
  Q 67.04 1059.76 27.74 923.03
  Q 5.14 844.42 1.05 760.62
  Q 0.48 749.00 0.00 737.38
  L 0.00 710.50
  Q 0.77 688.07 1.50 677.00
  C 11.12 531.00 63.69 393.35 153.32 278.56
  C 217.13 196.82 298.44 128.78 391.48 80.71
  Q 531.59 8.33 690.76 0.93
  Q 700.82 0.47 710.87 0.00
  Z
  M 1359.50 724.00
  A 635.50 635.50 0.0 0 0 724.00 88.50
  A 635.50 635.50 0.0 0 0 88.50 724.00
  A 635.50 635.50 0.0 0 0 724.00 1359.50
  A 635.50 635.50 0.0 0 0 1359.50 724.00
  Z"
/>
<g>
<path fill="#ffffff" d="
  M 849.00 956.46
  C 847.52 960.01 846.28 963.52 844.64 967.08
  Q 830.78 997.09 809.62 1021.11
  Q 806.22 1024.98 802.49 1028.98
  Q 798.83 1032.91 794.98 1036.48
  C 790.90 1040.27 786.88 1044.14 782.61 1047.64
  Q 736.43 1085.54 679.53 1099.68
  Q 621.09 1114.21 560.07 1104.83
  Q 550.40 1103.35 539.78 1100.85
  C 482.08 1087.27 429.04 1056.98 384.13 1017.48
  Q 379.76 1013.64 375.56 1010.01
  Q 370.83 1005.93 368.03 1002.37
  Q 364.69 998.12 362.48 993.05
  A 2.19 2.18 -38.3 0 1 362.75 990.84
  Q 367.12 985.11 373.41 979.90
  Q 397.72 959.75 424.16 942.02
  Q 435.94 934.11 446.81 938.18
  Q 451.47 939.92 458.35 945.63
  Q 471.24 956.35 484.52 966.77
  Q 538.61 1009.22 607.36 1010.34
  Q 616.27 1010.49 627.49 1009.10
  Q 691.72 1001.15 733.62 954.42
  C 748.72 937.57 758.87 915.79 763.61 893.37
  Q 767.96 872.84 768.93 849.85
  Q 769.32 840.54 769.32 829.67
  Q 769.30 529.39 769.32 231.48
  Q 769.32 224.51 770.78 217.92
  Q 772.33 210.89 780.24 210.60
  Q 787.37 210.34 794.99 210.49
  C 796.59 210.52 798.07 210.12 799.67 210.11
  Q 816.95 209.99 834.42 210.12
  C 838.62 210.15 842.74 210.66 846.90 210.47
  C 852.45 210.22 857.58 211.46 862.36 214.25
  Q 863.06 214.66 863.20 215.45
  Q 863.69 218.25 863.63 221.11
  C 863.57 224.10 865.95 225.45 865.95 227.96
  Q 866.12 544.82 865.90 860.47
  Q 865.89 870.89 862.47 900.82
  Q 858.81 932.93 849.00 956.46
  Z"
/>
<path fill="#ffffff" d="
  M 288.55 518.00
  C 288.27 508.53 294.02 503.64 301.09 498.39
  Q 480.07 365.56 628.27 256.64
  C 632.99 253.17 638.88 250.33 644.75 249.23
  Q 660.96 246.22 677.42 248.86
  C 679.20 249.15 680.95 250.45 680.96 252.39
  Q 681.14 289.65 680.86 321.53
  Q 680.83 325.23 680.43 329.43
  C 679.07 343.67 670.13 352.28 658.78 360.70
  Q 507.73 472.70 341.07 594.93
  Q 329.81 603.19 317.21 612.77
  C 309.56 618.59 301.54 623.34 293.20 627.83
  Q 291.77 628.60 290.13 629.02
  A 1.31 1.30 83.3 0 1 288.50 627.73
  Q 288.76 611.42 288.38 594.99
  C 287.93 575.67 288.11 556.33 288.12 537.00
  C 288.13 530.58 288.74 524.31 288.55 518.00
  Z"
/>
<path fill="#ffffff" d="
  M 1015.36 724.53
  C 1023.74 709.83 1030.13 695.46 1035.22 679.50
  Q 1038.67 668.67 1042.46 648.34
  Q 1043.25 644.10 1044.38 629.02
  Q 1046.59 599.46 1040.45 570.09
  Q 1029.25 516.49 994.53 475.54
  Q 986.70 466.29 978.68 458.17
  Q 967.35 446.70 955.82 435.44
  C 952.53 432.23 951.56 428.12 951.50 423.22
  Q 950.93 378.59 951.21 360.05
  Q 951.56 336.82 951.56 317.42
  A 1.32 1.32 0.0 0 1 953.43 316.22
  Q 978.78 327.86 1001.82 345.38
  Q 1030.81 367.44 1053.43 391.00
  Q 1064.13 402.15 1074.81 415.87
  C 1112.60 464.42 1136.81 522.61 1141.48 583.66
  C 1143.06 604.35 1143.31 623.59 1141.89 642.74
  Q 1136.96 709.14 1105.12 765.37
  Q 1090.06 791.98 1068.56 816.56
  Q 1044.78 843.75 1015.33 866.82
  Q 987.50 888.63 959.70 905.32
  C 957.71 906.52 956.15 907.63 953.83 907.99
  A 2.00 2.00 0.0 0 1 951.51 906.01
  Q 951.53 883.73 951.49 861.25
  Q 951.48 859.56 951.47 857.75
  Q 951.09 802.98 951.10 802.26
  C 951.21 796.98 953.35 791.80 957.64 788.53
  Q 984.89 767.74 1004.64 741.05
  Q 1010.33 733.36 1015.36 724.53
  Z"
/>
<path fill="#ffffff" d="
  M 680.82 593.04
  C 680.29 603.56 675.04 612.83 667.02 619.77
  Q 656.32 629.04 645.42 637.14
  Q 465.99 770.52 303.69 893.61
  C 299.72 896.62 295.77 898.99 291.69 901.55
  Q 290.82 902.10 289.81 902.18
  Q 288.50 902.28 288.55 900.97
  C 288.80 894.58 288.14 888.44 288.13 882.09
  Q 288.09 839.90 288.13 800.36
  C 288.13 793.90 288.75 787.33 288.62 780.93
  Q 288.58 778.86 290.03 776.86
  Q 295.90 768.73 305.54 761.57
  Q 457.50 648.74 606.20 537.70
  Q 640.83 511.84 677.28 485.89
  A 2.38 2.38 0.0 0 1 681.04 487.87
  Q 680.88 496.57 681.09 504.68
  Q 681.30 512.84 681.30 521.38
  Q 681.29 539.46 681.30 561.00
  Q 681.30 562.61 681.32 564.25
  Q 681.51 579.26 680.82 593.04
  Z"
/>
<path fill="#ffffff" d="
  M 566.67 913.76
  C 553.70 908.93 541.28 901.71 530.96 892.64
  Q 526.14 888.40 522.75 883.90
  C 519.23 879.21 517.34 872.54 519.23 866.70
  C 521.72 858.98 527.80 853.65 534.19 848.92
  Q 607.19 794.91 668.27 750.41
  Q 673.44 746.64 679.61 744.64
  A 1.07 1.06 81.0 0 1 680.99 745.65
  Q 681.03 754.97 680.98 764.50
  C 680.97 766.87 681.70 769.18 681.27 771.46
  C 680.91 773.38 681.70 775.04 681.33 776.90
  Q 681.01 778.54 681.31 780.19
  C 681.58 781.64 681.23 782.87 681.24 784.28
  Q 681.49 826.56 680.86 849.65
  Q 680.56 860.68 674.09 869.91
  Q 670.99 874.33 659.62 883.53
  Q 639.32 899.93 619.08 912.96
  Q 614.04 916.21 606.55 917.89
  C 593.56 920.81 579.32 918.46 566.67 913.76
  Z"
/>
<path fill="#ffffff" d="
  M 808.69 1234.31
  Q 781.34 1222.72 775.66 1194.32
  Q 773.90 1185.50 774.42 1177.35
  Q 774.95 1169.11 780.90 1164.15
  Q 801.84 1146.72 830.90 1125.69
  Q 1018.59 989.87 1144.01 896.41
  Q 1151.14 891.10 1157.31 887.83
  A 1.49 1.49 0.0 0 1 1159.50 889.14
  Q 1159.52 947.93 1159.49 1006.99
  C 1159.49 1010.56 1157.60 1013.76 1154.81 1015.79
  Q 1030.60 1106.28 972.80 1149.90
  Q 921.09 1188.94 870.80 1223.55
  Q 863.26 1228.74 851.11 1233.56
  Q 836.65 1239.29 821.00 1237.49
  Q 814.37 1236.72 808.69 1234.31
  Z"
/>
</g>
</svg>
